<svg width="24" height="24" viewBox="0 0 24 24" fill="none" xmlns="http://www.w3.org/2000/svg">
<path d="M23.2929 5.07211C23.6834 4.68158 23.6834 4.04842 23.2929 3.65789L20.3421 0.707108C19.9516 0.316583 19.3184 0.316583 18.9279 0.707107L12.7071 6.92789C12.3166 7.31842 11.6834 7.31842 11.2929 6.92789L5.07211 0.707107C4.68158 0.316583 4.04842 0.316583 3.65789 0.707107L0.707108 3.65789C0.316583 4.04842 0.316583 4.68158 0.707107 5.07211L6.92789 11.2929C7.31842 11.6834 7.31842 12.3166 6.92789 12.7071L0.707107 18.9279C0.316583 19.3184 0.316583 19.9516 0.707107 20.3421L3.65789 23.2929C4.04842 23.6834 4.68158 23.6834 5.07211 23.2929L11.2929 17.0721C11.6834 16.6816 12.3166 16.6816 12.7071 17.0721L18.9279 23.2929C19.3184 23.6834 19.9516 23.6834 20.3421 23.2929L23.2929 20.3421C23.6834 19.9516 23.6834 19.3184 23.2929 18.9279L17.0721 12.7071C16.6816 12.3166 16.6816 11.6834 17.0721 11.2929L23.2929 5.07211Z" fill="#235275"/>
</svg>
